<svg version="1.2" xmlns="http://www.w3.org/2000/svg" width="56" height="48"><defs><clipPath clipPathUnits="userSpaceOnUse" id="a"><path d="M-249-262h1920V818H-249z"/></clipPath></defs><g clip-path="url(#a)"><path fill-rule="evenodd" d="M55.5 1.2c-.3-.2-.6-.3-.9-.1L1.3 21.3c-.3.1-.5.4-.5.7-.1.4.1.7.4.9l11 6 3.9 18.4q0 .2.1.3v.1q.3.2.6.3h.1q.3 0 .5-.1l.1-.1q0-.1.1-.1l8.3-8.1c.3-.4.3-.9 0-1.2-.4-.4-.9-.4-1.3 0l-6.5 6.4 1.4-11.9 19.9 10.8q.3.1.7 0 .3-.1.5-.4l.1-.1 15-41.1c.1-.3 0-.6-.2-.9zM3.7 22.3L47.2 5.7 13 27.4zm14.5 8.6q-.1.1-.2.3-.1.2-.1.3l-1.2 10.2L14 28.8l29.6-18.7zm21.1 10.8l-19-10.3L52.9 4.6z" fill="#707070"/></g></svg>